<svg width="146" height="155" viewBox="0 0 146 155" fill="none" xmlns="http://www.w3.org/2000/svg">
<g clip-path="url(#clip0)">
<path d="M101.414 133.9H56.7544C49.0948 133.9 42.8283 128.121 42.8283 121.057V84.6682C42.8283 77.6048 49.0948 71.8252 56.7544 71.8252H101.414C109.074 71.8252 115.341 77.6048 115.341 84.6682V121.057C115.341 128.121 109.073 133.9 101.414 133.9Z" fill="white"/>
<path d="M101.414 71.8252C109.073 71.8252 115.34 77.604 115.34 84.6675V121.056C115.34 128.121 109.073 133.899 101.414 133.899H56.7546C49.0951 133.899 42.8285 128.121 42.8285 121.056V84.6675C42.8285 77.604 49.0951 71.8252 56.7546 71.8252H101.414ZM101.414 69.7949H56.7546C54.5855 69.7949 52.4768 70.1905 50.4869 70.9702C48.5687 71.7218 46.8448 72.7955 45.363 74.1622C43.8813 75.5289 42.7166 77.1192 41.9015 78.8872C41.0563 80.7224 40.6273 82.6674 40.6273 84.6675V121.056C40.6273 123.057 41.0563 125.001 41.9015 126.837C42.7166 128.606 43.8807 130.196 45.363 131.562C46.8448 132.928 48.5693 134.003 50.4869 134.754C52.4768 135.534 54.5855 135.929 56.7546 135.929H101.415C103.584 135.929 105.693 135.534 107.682 134.754C109.601 134.003 111.325 132.929 112.806 131.562C114.288 130.196 115.452 128.605 116.268 126.837C117.113 125.001 117.542 123.057 117.542 121.056V84.6675C117.542 82.6674 117.113 80.7224 116.268 78.8872C115.452 77.1185 114.289 75.5289 112.806 74.1622C111.325 72.7962 109.6 71.7218 107.682 70.9702C105.693 70.1905 103.584 69.7949 101.414 69.7949Z" fill="#00227B"/>
<path d="M114.342 111.399C107.388 112.151 100.458 112.336 100.458 112.336C100.458 112.336 96.928 96.105 95.9495 83.378C95.2287 73.9477 95.9067 66.4431 100.458 68.8907C102.552 70.017 104.963 72.138 107.477 74.8289C116.908 84.9237 127.742 103.051 128.337 106.812C128.721 109.231 121.522 110.618 114.342 111.399Z" fill="white"/>
<path d="M99.5269 113.417L99.3366 112.544C99.3152 112.444 97.1573 102.471 95.7599 92.145C94.9359 86.0569 94.5339 81.0303 94.5629 77.2049C94.6019 71.9802 95.4251 69.0172 97.1512 67.8798C97.9094 67.3804 99.1982 66.993 101.035 67.9807C107.089 71.2377 114.772 81.6142 118.813 87.5092C121.509 91.4415 124.09 95.5748 126.081 99.1476C127.482 101.665 129.209 105.011 129.47 106.659C129.546 107.138 129.495 107.864 128.822 108.603C127.849 109.671 125.828 110.507 122.462 111.233C119.994 111.766 116.822 112.224 113.035 112.595C106.623 113.223 100.552 113.39 100.492 113.391L99.5269 113.417ZM98.8817 69.4789C98.6608 69.4789 98.5447 69.5554 98.4812 69.5966C97.7352 70.0884 95.497 73.1473 98.0294 91.8732C99.176 100.354 100.841 108.598 101.394 111.249C103.347 111.176 107.98 110.968 112.806 110.495C124.011 109.396 126.513 107.856 127.07 107.245C127.224 107.077 127.212 106.998 127.206 106.964C126.881 104.914 122.654 97.0597 116.88 88.6366C110.193 78.8816 103.998 72.017 99.8823 69.8031C99.4153 69.5519 99.0981 69.4789 98.8817 69.4789Z" fill="#00227B"/>
<path d="M65.0762 68.2922L63.6687 78.1101L62.8681 83.6922L61.1605 95.6102C61.1605 95.6102 58.0398 97.5672 52.8488 99.1186C50.9092 99.699 48.6752 100.218 46.2099 100.558C42.1798 101.117 37.5202 101.189 32.4718 100.237C19.4834 97.7831 11.6886 88.8858 8.31389 84.4127C1.79135 75.778 0.7876 73.4438 2.60077 69.8089C3.98502 67.0232 6.35667 66.5145 6.35667 66.5145C6.35667 66.5145 6.23968 64.2885 8.15031 63.4968C13.8766 61.1252 21.2532 67.4588 21.2532 67.4588C21.2532 67.4588 21.528 60.6479 25.4808 62.2203C28.204 63.3043 28.8216 70.7195 28.8216 70.7195C28.8216 70.7195 32.4769 75.0511 38.2836 75.6258C41.3181 75.9259 45.5174 75.1141 49.6878 73.935C49.7362 73.9215 49.7853 73.9088 49.8337 73.8925C52.0563 73.2598 54.2645 72.5258 56.2864 71.8004C57.1933 71.4762 58.0625 71.1514 58.8776 70.8407C62.5215 69.4476 65.0762 68.2922 65.0762 68.2922Z" fill="white"/>
<path opacity="0.35" d="M8.31199 84.4127C11.6899 88.8851 19.4834 97.7838 32.4706 100.237C40.6056 101.771 47.7344 100.644 52.8493 99.1165C58.0404 97.5672 61.1605 95.6088 61.1605 95.6088L61.3894 86.2041C61.3894 86.2041 57.8524 83.0609 54.5581 84.3427C50.5997 85.882 51.8682 91.1166 46.2149 92.5725C30.4989 96.6195 17.7319 89.2255 13.6238 85.979C7.9246 81.4762 6.4378 78.6395 5.63593 77.4696C3.97622 75.0476 2.69448 73.1451 1.97186 71.4408C1.2354 74.3236 2.80769 77.1235 8.31199 84.4127Z" fill="#00227B"/>
<path d="M40.308 102.023C37.5961 102.023 34.8955 101.771 32.2415 101.269C26.4033 100.167 20.9562 97.6847 16.0525 93.8904C12.8966 91.4486 9.97654 88.4618 7.37411 85.0157C4.19808 80.8088 2.17925 77.9197 1.25852 75.5982C0.376146 73.3737 0.463566 71.5689 1.55914 69.3675C2.63774 67.1994 4.26852 66.2024 5.25403 65.775C5.41503 64.6602 6.04207 63.2143 7.68105 62.5357C12.3375 60.6066 17.711 63.5919 20.3707 65.4293C20.3965 65.3046 20.4254 65.177 20.4562 65.0477C20.8971 63.2241 21.6581 61.9865 22.7178 61.3699C23.3687 60.9912 24.4548 60.6635 25.9359 61.2533C27.4384 61.8519 28.5347 63.6145 29.2881 66.6415C29.6736 68.1924 29.8591 69.6481 29.929 70.2931C30.7377 71.1379 33.8987 74.1303 38.4068 74.5762C46.6361 75.3895 64.393 67.4251 64.5716 67.3445C64.9502 67.1733 65.4005 67.2081 65.7427 67.4355C66.0848 67.6622 66.2641 68.0451 66.2093 68.4302L62.2962 95.7468C62.2534 96.0448 62.0755 96.3116 61.8056 96.4808C61.6748 96.5629 58.5365 98.5135 53.3184 100.085C50.2618 101.007 47.1173 101.606 43.9727 101.869C42.7507 101.972 41.5281 102.023 40.308 102.023ZM6.6213 67.5393C6.4735 67.5765 4.727 68.059 3.63834 70.2467C2.17233 73.1933 2.5327 74.9103 9.25143 83.809C15.5683 92.1755 23.6763 97.4978 32.7 99.2021C40.9218 100.754 48.0632 99.4484 52.6065 98.0796C56.458 96.9189 59.1139 95.5345 60.0963 94.9817L63.666 70.0652C61.8013 70.8506 58.751 72.0842 55.3278 73.2676C47.7078 75.9005 41.9319 77.0463 38.1628 76.674C31.9446 76.0597 28.0806 71.559 27.9189 71.3679C27.7812 71.2044 27.6982 71.007 27.6812 70.8003C27.68 70.7833 27.5246 68.9824 27.0517 67.0904C26.2549 63.901 25.3014 63.2984 25.0285 63.19C24.3455 62.9179 24.0505 63.089 23.9392 63.1534C22.9776 63.7114 22.4568 66.0301 22.3939 67.4981C22.3763 67.91 22.0996 68.2753 21.6863 68.4325C21.2726 68.5897 20.7983 68.5108 20.4707 68.2295C20.4028 68.1715 13.5809 62.4041 8.61813 64.4601C7.47474 64.934 7.49549 66.3631 7.49863 66.4658C7.5326 66.9866 7.17412 67.4314 6.6213 67.5393Z" fill="#00227B"/>
<path d="M22.1943 67.4576C22.2207 67.7539 22.1729 68.0236 22.1088 68.2574C22.0767 68.378 22.0371 68.4824 21.9968 68.5897C21.956 68.6901 21.9113 68.7921 21.8673 68.8832C21.6867 69.2578 21.4918 69.5682 21.3063 69.8692C21.1201 70.1684 20.9408 70.4532 20.7742 70.7386L20.6522 70.9532C20.6138 71.0254 20.5729 71.0962 20.5359 71.1691L20.4277 71.3871L20.3245 71.6072L20.2308 71.8315L20.144 72.0587C20.1144 72.1345 20.0924 72.2123 20.0661 72.2895C20.0384 72.3666 20.0176 72.4452 19.995 72.5237C19.9082 72.8394 19.8334 73.1642 19.79 73.499C19.7428 73.8331 19.7126 74.1756 19.7038 74.5239C19.6943 74.6994 19.6982 74.8742 19.6962 75.0533C19.6931 75.1424 19.7013 75.2309 19.7019 75.3208C19.7038 75.4107 19.7069 75.5006 19.7063 75.5912V75.5975C19.7063 75.6676 19.6446 75.7249 19.5679 75.7249C19.5145 75.7249 19.4685 75.6966 19.4459 75.6556C19.2623 75.3272 19.0963 74.9867 18.9679 74.63C18.8327 74.2754 18.7359 73.9053 18.6648 73.5266C18.5252 72.7693 18.5283 71.9674 18.6818 71.1846L18.7453 70.8923C18.7699 70.7961 18.7968 70.7003 18.8227 70.6034C18.8504 70.5077 18.8812 70.4138 18.9101 70.3181C18.9403 70.2236 18.9761 70.1313 19.0094 70.0379C19.1472 69.6668 19.3176 69.3141 19.4931 68.9835C19.668 68.6535 19.8541 68.3421 20.0051 68.0718C20.1641 67.798 20.2541 67.5759 20.3069 67.4558L20.4176 67.2047C20.6101 66.7691 21.1491 66.5598 21.6214 66.7372C21.9553 66.8637 22.166 67.1484 22.1943 67.4576Z" fill="#00227B"/>
<path d="M31.2141 100.961C30.9255 100.961 30.6469 100.814 30.5097 100.559C30.316 100.201 30.4745 99.7655 30.8632 99.5871C34.0348 98.132 36.202 93.5903 37.1291 86.4532C37.8479 80.9227 37.5492 75.7787 37.5461 75.7278C37.5222 75.3279 37.8536 74.986 38.2869 74.9634C38.7184 74.9407 39.0913 75.2472 39.1158 75.6464C39.119 75.6987 39.4253 80.9525 38.6926 86.6068C38.2593 89.9524 37.5517 92.7919 36.5895 95.0447C35.3442 97.9614 33.6531 99.9262 31.5638 100.885C31.4512 100.937 31.3318 100.961 31.2141 100.961Z" fill="#00227B"/>
<g opacity="0.35">
<g opacity="0.35">
<g opacity="0.35">
<g opacity="0.35">
<path opacity="0.35" d="M132.676 147.628V147.479C131.418 147.529 132.676 147.628 132.676 147.628Z" fill="#00227B"/>
</g>
</g>
</g>
</g>
<path d="M116.808 129.816H41.2812C41.2812 129.816 41.7416 117.796 46.2094 100.558C47.9999 93.6441 50.437 85.8912 53.7463 77.7378C54.5412 75.7801 55.3884 73.7998 56.2865 71.7997C58.7978 66.221 61.7267 60.5075 65.1423 54.794H92.9477C95.7706 59.518 98.2618 64.2398 100.459 68.8901C101.88 71.8974 103.178 74.8728 104.362 77.7951C109.531 90.5363 112.567 102.296 114.342 111.398C116.533 122.628 116.808 129.816 116.808 129.816Z" fill="white"/>
<path d="M106.439 86.7604C107.899 88.2629 108.566 90.0125 109.183 91.7692C109.492 92.6475 109.797 93.528 110.089 94.4127C110.234 94.855 110.384 95.296 110.514 95.7419C110.648 96.1871 110.778 96.6337 110.909 97.0795L111.291 98.42C111.417 98.8674 111.544 99.3139 111.662 99.7634L112.357 102.46C112.47 102.91 112.594 103.357 112.705 103.808L113.037 105.159L113.377 106.509C113.491 106.958 113.609 107.407 113.716 107.859L114.371 110.563C114.485 111.013 114.581 111.467 114.685 111.919L114.992 113.275L115.145 113.953L115.222 114.292L115.293 114.633L115.581 115.992C115.677 116.446 115.776 116.899 115.879 117.351C115.978 117.804 116.078 118.257 116.183 118.709C116.621 120.515 116.94 122.344 117.073 124.196C117.09 124.428 117.11 124.658 117.121 124.891L117.153 125.588C117.17 126.053 117.184 126.517 117.176 126.985C117.173 127.452 117.162 127.92 117.129 128.389C117.1 128.858 117.058 129.327 116.98 129.8C116.966 129.891 116.873 129.954 116.775 129.94C116.707 129.931 116.655 129.889 116.632 129.834V129.832C116.27 128.947 115.975 128.059 115.697 127.17C115.56 126.726 115.428 126.28 115.3 125.836L115.116 125.167C115.059 124.943 114.999 124.721 114.939 124.498C114.705 123.605 114.498 122.71 114.313 121.811C114.223 121.361 114.142 120.91 114.068 120.458C113.988 120.005 113.914 119.553 113.839 119.101C113.765 118.648 113.687 118.196 113.607 117.744C113.523 117.293 113.429 116.843 113.334 116.394L113.049 115.045L112.978 114.709L112.902 114.372L112.749 113.7L112.445 112.355C112.342 111.907 112.246 111.458 112.135 111.011L111.484 108.329C111.38 107.881 111.258 107.437 111.143 106.992L110.787 105.657L110.423 104.325C110.365 104.103 110.297 103.882 110.233 103.661L110.037 102.998L109.252 100.347C108.98 99.4661 108.702 98.5871 108.437 97.7045C108.305 97.2629 108.173 96.8212 108.045 96.3789L107.949 96.0469L107.848 95.7164L107.649 95.0546C107.383 94.1728 107.13 93.2866 106.882 92.3991L106.699 91.7317C106.639 91.5102 106.572 91.2893 106.507 91.0678C106.38 90.6247 106.273 90.176 106.192 89.7195C106.112 89.2623 106.056 88.7987 106.035 88.3238C106.024 88.0867 106.022 87.8468 106.032 87.6033C106.042 87.3591 106.059 87.1128 106.105 86.858L106.107 86.8481C106.124 86.7519 106.224 86.6875 106.328 86.7037C106.373 86.7108 106.412 86.7321 106.439 86.7604Z" fill="#00227B"/>
<path d="M41.104 129.811C40.9876 129.572 40.9077 129.335 40.8329 129.097C40.7581 128.857 40.702 128.622 40.6524 128.384C40.5518 127.908 40.4976 127.435 40.4675 126.963C40.4537 126.728 40.4442 126.492 40.4448 126.257C40.4455 126.022 40.4555 125.789 40.4675 125.555L40.5103 124.854C40.5235 124.62 40.5391 124.386 40.5599 124.153C40.6385 123.221 40.7153 122.287 40.8335 121.359C40.8869 120.894 40.9467 120.429 41.0058 119.965C41.0348 119.733 41.0738 119.502 41.1077 119.27L41.214 118.576L41.436 117.189C41.514 116.728 41.6046 116.268 41.6895 115.808C41.8631 114.887 42.0266 113.965 42.2246 113.049C42.4171 112.133 42.5932 111.214 42.7901 110.298C42.99 109.383 43.185 108.467 43.3775 107.552C43.4265 107.322 43.4705 107.092 43.524 106.864L43.6825 106.18L43.9989 104.811L44.3152 103.442C44.3423 103.328 44.3668 103.214 44.3951 103.1L44.4818 102.76L44.6554 102.078L45.3491 99.3529C45.4051 99.1257 45.468 98.8999 45.5303 98.6734C45.5907 98.4469 45.6523 98.2204 45.7101 97.994C45.8271 97.5396 45.9428 97.0852 46.0541 96.6301C46.168 96.175 46.2793 95.7192 46.3969 95.2655C46.5101 94.8097 46.6523 94.3624 46.7944 93.9137C46.9397 93.4671 47.0938 93.0219 47.2554 92.5789C47.4177 92.1365 47.59 91.6963 47.7642 91.2568L48.0334 90.6007C48.0786 90.4917 48.1289 90.3834 48.178 90.2751C48.2277 90.1675 48.2755 90.0585 48.3271 89.951C48.5302 89.5199 48.7359 89.091 48.9547 88.6657C49.171 88.2396 49.3968 87.8163 49.634 87.3981C49.8711 86.9791 50.117 86.5629 50.3899 86.1559C50.4421 86.0774 50.5535 86.0533 50.6383 86.1021C50.6962 86.1354 50.727 86.1934 50.7238 86.2529V86.255C50.6106 88.1688 50.222 89.9906 49.8384 91.811C49.7396 92.2653 49.639 92.7183 49.5283 93.1699C49.4169 93.6207 49.2975 94.0687 49.1704 94.5146C48.905 95.4043 48.6384 96.2939 48.3604 97.1808C48.2214 97.6245 48.0862 98.069 47.9522 98.5142C47.8843 98.7357 47.8208 98.9594 47.756 99.1823C47.6925 99.4052 47.6271 99.6282 47.573 99.854L46.8869 102.55L46.7152 103.224L46.6296 103.561C46.6013 103.674 46.5768 103.786 46.5504 103.899L46.2372 105.253L45.924 106.607L45.7674 107.285C45.7152 107.511 45.6712 107.738 45.6227 107.964C44.8189 111.583 44.2787 115.245 43.7536 118.9L43.5498 120.269C43.4863 120.727 43.4228 121.184 43.3536 121.64L42.9485 124.379C42.875 124.836 42.8158 125.292 42.7492 125.749C42.7146 125.977 42.6782 126.205 42.6322 126.433C42.587 126.66 42.5423 126.887 42.4869 127.114C42.3769 127.568 42.2404 128.02 42.0788 128.471C41.9983 128.697 41.9021 128.923 41.8033 129.148C41.702 129.373 41.592 129.599 41.4561 129.823L41.4549 129.826C41.4021 129.913 41.2832 129.944 41.1889 129.896C41.1492 129.874 41.1209 129.845 41.104 129.811Z" fill="#00227B"/>
<path d="M63.0341 114.65C58.7266 116.259 52.0601 115.922 47.5155 115.415C44.7898 115.111 42.876 112.791 43.2779 110.286C43.6445 108 45.8263 106.338 48.3288 106.446C52.5796 106.63 58.9562 106.716 62.9944 105.89" fill="white"/>
<g opacity="0.35">
<g opacity="0.35">
<g opacity="0.35">
<g opacity="0.35">
<path opacity="0.35" d="M63.0352 114.65C58.7265 116.261 52.06 115.921 47.5154 115.417C44.7897 115.112 42.8765 112.791 43.2784 110.288C43.3583 109.777 43.5325 109.297 43.7797 108.86C44.4973 110.123 45.8563 111.054 47.5154 111.24C52.0518 111.748 58.707 112.084 63.0164 110.484L63.0352 114.65Z" fill="#00227B"/>
</g>
</g>
</g>
</g>
<path d="M54.4701 116.889C51.9777 116.889 49.4997 116.699 47.3778 116.463C45.7527 116.281 44.3105 115.52 43.3168 114.32C42.3213 113.117 41.9056 111.63 42.1458 110.132C42.3647 108.768 43.1206 107.532 44.2741 106.656C45.4288 105.777 46.8879 105.329 48.3822 105.393C54.6443 105.663 59.7454 105.474 62.746 104.861C63.3485 104.738 64.8453 104.733 65.729 107.353C66.6265 110.015 66.5271 114.486 63.4636 115.629C60.9373 116.572 57.692 116.889 54.4701 116.889ZM48.0966 107.496C46.2514 107.496 44.6829 108.736 44.4099 110.44C44.2609 111.369 44.5187 112.293 45.1363 113.04C45.752 113.783 46.6457 114.255 47.6533 114.367C54.1519 115.092 59.4624 114.846 62.6051 113.672C63.5384 113.324 63.8064 111.929 63.8787 111.346C64.1302 109.304 63.4567 107.418 63.0347 106.961C58.9391 107.755 52.7676 107.695 48.2759 107.501C48.2155 107.497 48.1558 107.496 48.0966 107.496Z" fill="#00227B"/>
<path d="M95.9824 114.65C100.29 116.259 106.957 115.922 111.501 115.415C114.227 115.111 116.14 112.791 115.739 110.286C115.372 108 113.191 106.338 110.688 106.446C106.437 106.63 100.06 106.716 96.0221 105.89" fill="white"/>
<g opacity="0.35">
<g opacity="0.35">
<g opacity="0.35">
<g opacity="0.35">
<path opacity="0.35" d="M111.5 115.417C106.955 115.921 100.289 116.261 95.9801 114.65L95.9984 110.445C100.307 112.045 106.963 111.709 111.5 111.202C113.152 111.019 114.503 110.095 115.224 108.838C115.478 109.279 115.656 109.766 115.741 110.287C116.14 112.791 114.226 115.112 111.5 115.417Z" fill="#00227B"/>
</g>
</g>
</g>
</g>
<path d="M104.547 116.889C101.325 116.889 98.0799 116.572 95.5528 115.629C92.4898 114.486 92.3905 110.014 93.2879 107.353C94.1708 104.733 95.6682 104.738 96.2706 104.86C99.2716 105.474 104.373 105.663 110.634 105.393C112.13 105.329 113.588 105.777 114.743 106.655C115.896 107.532 116.652 108.767 116.871 110.132C117.111 111.63 116.695 113.117 115.7 114.319C114.706 115.52 113.264 116.281 111.639 116.462C109.517 116.699 107.039 116.889 104.547 116.889ZM95.9824 106.961C95.5604 107.418 94.887 109.304 95.1385 111.346C95.2103 111.929 95.4779 113.324 96.412 113.673C99.5552 114.846 104.865 115.093 111.364 114.367C112.371 114.255 113.265 113.783 113.881 113.04C114.498 112.293 114.757 111.37 114.608 110.441C114.326 108.681 112.664 107.418 110.742 107.501C106.249 107.695 100.078 107.755 95.9824 106.961Z" fill="#00227B"/>
<path d="M97.6473 102.995V117.034C97.6473 119.639 95.3357 121.771 92.5113 121.771H64.4744C61.6537 121.771 59.3419 119.639 59.3419 117.034V102.995C59.3419 100.39 61.6537 98.2615 64.4744 98.2615H92.5113C94.1738 98.2615 95.6583 99.0004 96.5993 100.138C97.2559 100.933 97.6473 101.923 97.6473 102.995Z" fill="white"/>
<g opacity="0.35">
<g opacity="0.35">
<g opacity="0.35">
<g opacity="0.35">
<path opacity="0.35" d="M97.6465 102.995V117.034C97.6465 119.639 95.3357 121.77 92.5113 121.77H64.4754C61.6509 121.77 59.3402 119.639 59.3402 117.034V111.783C63.5508 115.742 71.8318 118.227 79.4263 118.264C81.867 118.276 83.8353 116.496 84.0096 114.251C84.0112 114.229 84.0134 114.206 84.015 114.184C84.2023 112.214 85.9611 110.62 88.0991 110.477C90.5345 110.315 92.5908 111.974 92.8315 114.13C96.5075 109.945 95.4305 102.671 96.6 100.138C97.2574 100.933 97.6465 101.923 97.6465 102.995Z" fill="#00227B"/>
</g>
</g>
</g>
</g>
<path d="M92.512 122.826H64.4748C61.0132 122.826 58.197 120.228 58.197 117.036V102.995C58.197 99.803 61.0132 97.2055 64.4748 97.2055H92.512C95.9732 97.2055 98.79 99.803 98.79 102.995V117.036C98.79 120.228 95.9732 122.826 92.512 122.826ZM64.4748 99.3154C62.2749 99.3154 60.485 100.966 60.485 102.995V117.036C60.485 119.065 62.2749 120.715 64.4748 120.715H92.512C94.712 120.715 96.5022 119.065 96.5022 117.036V102.995C96.5022 100.966 94.712 99.3154 92.512 99.3154H64.4748Z" fill="#00227B"/>
<path d="M88.4255 114.098C90.8709 114.098 92.8537 112.27 92.8537 110.015C92.8537 107.76 90.8709 105.932 88.4255 105.932C85.9802 105.932 83.9982 107.76 83.9982 110.015C83.9982 112.27 85.9802 114.098 88.4255 114.098Z" fill="#22A7F0"/>
<g opacity="0.7">
<g opacity="0.7">
<g opacity="0.7">
<g opacity="0.7">
<path opacity="0.7" d="M92.8529 110.015C92.8529 110.295 92.8247 110.566 92.7673 110.831C92.3584 108.964 90.5697 107.559 88.4271 107.559C86.2814 107.559 84.4927 108.964 84.0838 110.831C84.0264 110.566 83.9974 110.296 83.9974 110.015C83.9974 107.759 85.9802 105.933 88.4271 105.933C90.8701 105.933 92.8529 107.759 92.8529 110.015Z" fill="white"/>
</g>
</g>
</g>
</g>
<g opacity="0.35">
<g opacity="0.35">
<g opacity="0.35">
<g opacity="0.35">
<path opacity="0.35" d="M92.8522 110.015C92.8522 112.269 90.8709 114.097 88.4256 114.097C85.981 114.097 83.9997 112.269 83.9997 110.015C83.9997 109.493 84.1059 108.995 84.3032 108.538C84.9414 110.061 86.5474 111.139 88.4263 111.139C90.306 111.139 91.9112 110.061 92.5495 108.538C92.7459 108.995 92.8522 109.493 92.8522 110.015Z" fill="#00227B"/>
</g>
</g>
</g>
</g>
<path d="M88.4256 114.89C85.5117 114.89 83.1405 112.703 83.1405 110.015C83.1405 107.327 85.5117 105.141 88.4256 105.141C91.3402 105.141 93.7114 107.327 93.7114 110.015C93.7114 112.703 91.3402 114.89 88.4256 114.89ZM88.4256 106.724C86.458 106.724 84.8566 108.201 84.8566 110.015C84.8566 111.83 86.458 113.306 88.4256 113.306C90.3939 113.306 91.9953 111.83 91.9953 110.015C91.9953 108.201 90.3939 106.724 88.4256 106.724Z" fill="#00227B"/>
<path d="M75.88 122.562C75.4057 122.562 75.0221 122.207 75.0221 121.771V112.154L69.4153 108.261V98.2608C69.4153 97.8234 69.7995 97.4695 70.2731 97.4695C70.7467 97.4695 71.131 97.8234 71.131 98.2608V107.472L76.7379 111.364V121.771C76.7379 122.207 76.3535 122.562 75.88 122.562Z" fill="#00227B"/>
<path d="M79.0433 129.329C84.0027 129.329 88.7718 127.632 92.4967 124.612C97.6564 120.429 106.342 115.441 115.93 118.641C119.777 119.924 122.398 122.278 124.187 124.883C128.793 115.04 138.455 114.45 142.638 120.029C142.638 120.029 135.608 150.959 133.317 151.647C130.035 152.633 122.148 151.596 122.148 151.596C122.148 151.596 94.7104 148.171 79.0433 148.171C63.3755 148.171 35.9384 151.596 35.9384 151.596C35.9384 151.596 28.0518 152.633 24.7695 151.647C22.4783 150.959 15.4483 120.029 15.4483 120.029C19.63 114.45 29.2933 115.04 33.8994 124.883C35.6875 122.277 38.3094 119.924 42.1565 118.641C51.7437 115.441 60.4297 120.429 65.5893 124.612C69.3145 127.632 74.0835 129.329 79.0433 129.329Z" fill="white"/>
<g opacity="0.35">
<path opacity="0.35" d="M142.639 120.027C142.639 120.027 135.608 150.959 133.317 151.647C130.036 152.634 122.148 151.597 122.148 151.597C122.148 151.597 94.712 148.171 79.0426 148.171C63.3772 148.171 35.9381 151.597 35.9381 151.597C35.9381 151.597 28.0521 152.634 24.7717 151.647C22.4806 150.959 15.4499 120.027 15.4499 120.027C16.1392 119.109 16.9744 118.358 17.9127 117.788C20.1667 126.857 23.3642 138.698 24.7717 139.121C28.0527 140.104 35.9381 139.068 35.9381 139.068C35.9381 139.068 63.3772 132.214 79.0426 132.214C94.712 132.214 122.148 139.068 122.148 139.068C122.148 139.068 130.036 140.104 133.317 139.121C134.724 138.698 137.922 126.857 140.176 117.788C141.115 118.358 141.949 119.11 142.639 120.027Z" fill="#00227B"/>
</g>
<path d="M28.9996 153.124C27.2788 153.124 25.5978 153.006 24.4154 152.651C23.6091 152.408 22.9312 151.584 21.6588 147.929C20.9142 145.789 20.0205 142.81 19.0035 139.073C17.1721 132.347 15.3873 124.802 14.7049 121.871C14.3477 120.336 14.8929 118.749 16.1288 117.729C18.501 115.771 21.6809 115.016 24.8519 115.66C26.8506 116.066 28.7952 117.029 30.4756 118.443C31.8674 119.615 33.0775 121.079 34.0863 122.81C36.1334 120.401 38.7106 118.668 41.7685 117.649C45.2332 116.492 48.8583 116.262 52.5437 116.966C55.5191 117.535 58.5449 118.712 61.5359 120.468C62.0693 120.782 62.2259 121.434 61.8869 121.926C61.548 122.417 60.8404 122.562 60.3071 122.249C54.1506 118.634 48.1753 117.755 42.5471 119.633C39.3729 120.693 36.7887 122.648 34.8674 125.448C34.6403 125.779 34.2328 125.965 33.8108 125.936C33.3881 125.905 33.0183 125.661 32.8498 125.302C30.9253 121.189 27.831 118.426 24.3601 117.722C21.9161 117.226 19.4721 117.802 17.6551 119.303C17.03 119.819 16.7571 120.633 16.9426 121.429C17.5866 124.196 19.2746 131.335 21.0331 137.857C21.9998 141.441 22.8563 144.359 23.5795 146.525C24.5921 149.559 25.121 150.448 25.3091 150.697C27.894 151.365 33.7077 150.826 35.778 150.553C35.7806 150.553 35.7831 150.553 35.7856 150.552C36.0604 150.518 63.4793 147.117 79.0441 147.117C94.6088 147.117 122.027 150.518 122.302 150.552C122.304 150.553 122.307 150.553 122.31 150.553C124.381 150.826 130.195 151.365 132.779 150.697C132.964 150.453 133.478 149.589 134.457 146.679C135.163 144.58 135.999 141.753 136.943 138.273C138.624 132.071 140.236 125.321 141.047 121.851C141.313 120.713 140.851 119.547 139.87 118.881C137.998 117.607 135.677 117.227 133.337 117.811C129.984 118.646 127.107 121.307 125.238 125.302C125.071 125.661 124.701 125.905 124.277 125.936C123.854 125.967 123.448 125.779 123.221 125.448C121.299 122.65 118.716 120.693 115.542 119.634C109.864 117.739 103.837 118.649 97.6281 122.34C97.0969 122.656 96.3891 122.514 96.0466 122.025C95.7042 121.535 95.857 120.882 96.3891 120.566C99.3977 118.777 102.443 117.573 105.44 116.987C109.161 116.259 112.822 116.481 116.32 117.649C119.378 118.669 121.955 120.402 124.003 122.812C126.152 119.128 129.205 116.654 132.74 115.774C135.724 115.029 138.818 115.542 141.229 117.181C142.933 118.341 143.74 120.347 143.285 122.295C142.426 125.972 140.723 133.096 138.971 139.492C137.978 143.119 137.105 146.008 136.377 148.079C135.136 151.613 134.469 152.413 133.672 152.652C130.193 153.697 122.39 152.696 121.993 152.643C121.562 152.59 94.4093 149.227 79.0441 149.227C63.6768 149.227 36.5265 152.59 36.0963 152.643C35.8322 152.676 32.3423 153.124 28.9996 153.124Z" fill="#00227B"/>
<path d="M131.279 151.647H133.317C135.71 151.647 137.879 150.354 138.853 148.339C141.903 142.039 147.465 128.198 142.255 119.751C142.104 119.504 141.942 119.267 141.77 119.04C141.77 119.04 136.768 114.845 133.176 120.78C129.82 126.324 122.775 150.029 131.279 151.647Z" fill="#AFAFB2"/>
<g opacity="0.7">
<g opacity="0.7">
<g opacity="0.7">
<g opacity="0.7">
<path opacity="0.7" d="M131.336 124.731C131.425 124.598 131.515 124.473 131.603 124.356C136.021 118.421 142.17 122.617 142.17 122.617C142.381 122.844 142.582 123.081 142.767 123.328C143.383 124.141 143.877 125.004 144.263 125.907C144.013 123.688 143.391 121.591 142.255 119.751C142.104 119.505 141.942 119.268 141.77 119.041C141.77 119.041 136.769 114.845 133.176 120.78C132.631 121.679 131.991 123.051 131.336 124.731Z" fill="white"/>
</g>
</g>
</g>
</g>
<path d="M144.235 126.539C144.184 126.539 144.132 126.535 144.079 126.527L131.578 124.603C131.064 124.524 130.717 124.076 130.803 123.601C130.889 123.127 131.376 122.807 131.888 122.886L144.389 124.81C144.902 124.889 145.25 125.338 145.165 125.812C145.087 126.239 144.688 126.539 144.235 126.539Z" fill="#00227B"/>
<path d="M144.156 132.768C144.113 132.768 144.071 132.766 144.029 132.759L129.406 130.947C128.89 130.883 128.527 130.445 128.596 129.969C128.666 129.492 129.14 129.158 129.657 129.223L144.28 131.035C144.797 131.099 145.159 131.537 145.09 132.013C145.026 132.451 144.621 132.768 144.156 132.768Z" fill="#00227B"/>
<path d="M142.866 138.868C142.828 138.868 142.79 138.866 142.751 138.862L127.906 137.186C127.389 137.128 127.021 136.694 127.084 136.217C127.148 135.74 127.617 135.401 128.135 135.459L142.979 137.135C143.497 137.193 143.864 137.627 143.802 138.104C143.743 138.545 143.336 138.868 142.866 138.868Z" fill="#00227B"/>
<path d="M140.512 145.521C140.483 145.521 140.455 145.52 140.426 145.518L127.155 144.413C126.636 144.371 126.253 143.947 126.3 143.468C126.347 142.99 126.805 142.637 127.324 142.681L140.596 143.785C141.115 143.828 141.498 144.251 141.45 144.73C141.406 145.181 140.994 145.521 140.512 145.521Z" fill="#00227B"/>
<g opacity="0.35">
<g opacity="0.35">
<g opacity="0.35">
<g opacity="0.35">
<path opacity="0.35" d="M131.278 151.647H133.316C135.709 151.647 137.878 150.354 138.852 148.339C139.641 146.706 140.6 144.57 141.497 142.151C140.274 144.023 137.788 145.21 135.059 145.21H132.631C129.174 144.657 127.873 141.531 127.822 137.434C126.653 144.35 126.974 150.828 131.278 151.647Z" fill="#00227B"/>
</g>
</g>
</g>
</g>
<path d="M133.317 152.517H131.28C131.216 152.517 131.152 152.511 131.089 152.499C129.442 152.185 128.197 151.201 127.389 149.571C125.484 145.73 126.41 139.039 127.522 134.103C128.882 128.07 130.982 122.62 132.352 120.356C133.613 118.273 135.201 117.075 137.071 116.793C139.941 116.362 142.306 118.313 142.405 118.396C142.457 118.44 142.504 118.489 142.544 118.542C142.732 118.79 142.911 119.053 143.077 119.321C145.458 123.182 145.963 128.462 144.579 135.016C143.453 140.344 141.313 145.394 139.715 148.693C138.591 151.016 136.08 152.517 133.317 152.517ZM131.382 150.777H133.317C135.336 150.777 137.171 149.681 137.991 147.985C139.548 144.769 141.634 139.85 142.726 134.684C144.022 128.551 143.588 123.671 141.436 120.182C141.319 119.991 141.193 119.806 141.064 119.628C140.71 119.362 139.104 118.244 137.365 118.512C136.095 118.707 134.963 119.613 134 121.204C132.731 123.3 130.677 128.658 129.371 134.456C127.879 141.075 127.784 146.186 129.105 148.848C129.641 149.929 130.386 150.561 131.382 150.777Z" fill="#00227B"/>
<path d="M26.8084 151.647H24.7707C22.3783 151.647 20.2091 150.354 19.235 148.339C16.1847 142.039 10.6232 128.198 15.8325 119.751C15.9841 119.504 16.1464 119.267 16.3181 119.04C16.3181 119.04 21.3192 114.845 24.9122 120.78C28.2681 126.324 35.312 150.029 26.8084 151.647Z" fill="#AFAFB2"/>
<g opacity="0.7">
<g opacity="0.7">
<g opacity="0.7">
<g opacity="0.7">
<path opacity="0.7" d="M26.7513 124.731C26.6614 124.598 26.5714 124.473 26.484 124.356C22.0665 118.421 15.9163 122.617 15.9163 122.617C15.7056 122.844 15.505 123.081 15.3201 123.328C14.7031 124.141 14.2101 125.004 13.8245 125.907C14.0736 123.688 14.6956 121.591 15.8314 119.751C15.983 119.505 16.1452 119.268 16.3169 119.041C16.3169 119.041 21.3181 114.845 24.9111 120.78C25.4558 121.679 26.0959 123.051 26.7513 124.731Z" fill="white"/>
</g>
</g>
</g>
</g>
<path d="M13.8518 126.539C13.399 126.539 12.9997 126.238 12.9223 125.813C12.8368 125.338 13.1833 124.89 13.6977 124.811L26.1981 122.887C26.7119 122.807 27.198 123.127 27.2836 123.602C27.3691 124.076 27.0226 124.524 26.5082 124.603L14.0078 126.527C13.9556 126.536 13.9034 126.539 13.8518 126.539Z" fill="#00227B"/>
<path d="M13.9308 132.768C13.4655 132.768 13.0604 132.451 12.9969 132.014C12.9277 131.538 13.29 131.1 13.8063 131.036L28.4299 129.223C28.9469 129.158 29.4211 129.492 29.4909 129.969C29.5601 130.445 29.1979 130.883 28.6815 130.947L14.0579 132.76C14.0152 132.766 13.973 132.768 13.9308 132.768Z" fill="#00227B"/>
<path d="M15.2213 138.868C14.7515 138.868 14.3446 138.545 14.2861 138.104C14.2226 137.627 14.5905 137.193 15.1081 137.135L29.9525 135.459C30.4694 135.401 30.9398 135.74 31.0034 136.217C31.0669 136.694 30.699 137.128 30.1813 137.186L15.337 138.862C15.298 138.867 15.2591 138.868 15.2213 138.868Z" fill="#00227B"/>
<path d="M17.5756 145.521C17.0927 145.521 16.6814 145.181 16.6374 144.73C16.5908 144.251 16.9732 143.828 17.492 143.785L30.7634 142.681C31.2829 142.638 31.7408 142.99 31.7879 143.468C31.8345 143.947 31.4521 144.37 30.9333 144.413L17.6618 145.518C17.6329 145.52 17.604 145.521 17.5756 145.521Z" fill="#00227B"/>
<g opacity="0.35">
<g opacity="0.35">
<g opacity="0.35">
<g opacity="0.35">
<path opacity="0.35" d="M26.8078 151.647H24.7701C22.3777 151.647 20.2085 150.354 19.2344 148.339C18.4457 146.706 17.4866 144.57 16.5898 142.151C17.813 144.023 20.2985 145.21 23.0274 145.21H25.4563C28.9128 144.657 30.2134 141.531 30.265 137.434C31.4335 144.35 31.1121 150.828 26.8078 151.647Z" fill="#00227B"/>
</g>
</g>
</g>
</g>
<path d="M26.808 152.517H24.7702C22.0074 152.517 19.4961 151.016 18.3729 148.692C16.7761 145.395 14.6352 140.344 13.5095 135.016C12.1253 128.463 12.6302 123.183 15.0113 119.321C15.1767 119.053 15.356 118.791 15.5434 118.542C15.5836 118.489 15.6302 118.441 15.6824 118.397C15.7818 118.313 18.1471 116.362 21.0162 116.794C22.8866 117.075 24.4746 118.273 25.735 120.356C27.106 122.621 29.2053 128.07 30.5651 134.103C31.6776 139.04 32.6034 145.731 30.6984 149.572C29.8902 151.201 28.6457 152.186 26.9985 152.499C26.9356 152.511 26.8715 152.517 26.808 152.517ZM17.0232 119.629C16.893 119.806 16.7685 119.991 16.6516 120.181C14.4994 123.671 14.0648 128.55 15.361 134.684C16.4528 139.851 18.5376 144.769 20.0955 147.985C20.9162 149.682 22.7508 150.777 24.7696 150.777H26.7048C27.7004 150.562 28.4462 149.93 28.9821 148.848C30.3022 146.186 30.2085 141.075 28.7174 134.456C27.4105 128.657 25.3564 123.3 24.0872 121.204C23.1243 119.613 21.9923 118.707 20.7231 118.512C18.9861 118.245 17.3811 119.359 17.0232 119.629Z" fill="#00227B"/>
<path d="M49.8095 150.853C49.6756 150.853 49.5398 150.824 49.4128 150.763C48.9926 150.56 48.8304 150.082 49.0505 149.695C52.6334 143.381 52.6863 136.281 49.2077 128.592C46.5839 122.793 42.8267 118.824 42.7889 118.784C42.4758 118.457 42.5097 117.957 42.8651 117.668C43.2204 117.379 43.7625 117.409 44.0757 117.737C44.2361 117.905 48.0342 121.909 50.7712 127.938C52.3863 131.495 53.2869 135.015 53.4492 138.4C53.6529 142.657 52.6844 146.704 50.5706 150.428C50.4171 150.699 50.1184 150.853 49.8095 150.853Z" fill="#00227B"/>
<path d="M108.626 150.853C108.316 150.853 108.018 150.699 107.864 150.429C105.751 146.704 104.782 142.657 104.986 138.401C105.148 135.016 106.049 131.495 107.664 127.938C110.401 121.91 114.199 117.905 114.359 117.738C114.673 117.41 115.215 117.379 115.571 117.668C115.926 117.957 115.96 118.457 115.646 118.784C115.608 118.824 111.851 122.793 109.227 128.592C105.749 136.281 105.802 143.381 109.385 149.695C109.604 150.082 109.442 150.559 109.022 150.763C108.895 150.824 108.759 150.853 108.626 150.853Z" fill="#00227B"/>
<g opacity="0.35">
<path opacity="0.35" d="M107.477 74.8289C106.488 75.8736 105.446 76.8651 104.362 77.7966C101.788 80.0069 98.9674 81.8881 95.9495 83.3787C90.8525 85.9004 85.1975 87.3145 79.2428 87.34C73.4243 87.3641 67.8867 86.0611 62.8674 83.6922C59.5806 82.1387 56.5171 80.1308 53.7455 77.7385C52.3669 76.5459 51.0594 75.2613 49.8324 73.8925C52.055 73.2598 54.2632 72.5258 56.2851 71.8004C58.7963 66.2216 61.7252 60.508 65.1409 54.7946H92.9462C95.7691 59.5186 98.2603 64.2404 100.457 68.8907C102.552 70.017 104.963 72.138 107.477 74.8289Z" fill="#00227B"/>
</g>
<path d="M121.503 49.3548C121.019 49.4029 120.585 49.0799 120.533 48.6333L117.819 25.3441C117.767 24.8975 118.117 24.4968 118.601 24.4487C123.681 23.9452 128.242 27.3347 128.787 32.0193L129.714 39.9612C130.26 44.6458 126.584 48.8513 121.503 49.3548Z" fill="white"/>
<path d="M121.408 49.5601C121.158 49.5601 120.917 49.4824 120.72 49.3356C120.491 49.1657 120.348 48.9239 120.317 48.6547L117.603 25.3656C117.572 25.0965 117.656 24.832 117.84 24.6215C118.025 24.4109 118.287 24.2787 118.579 24.2497C123.771 23.7352 128.446 27.2111 129.004 31.9984L129.929 39.9403C130.2 42.2591 129.474 44.5362 127.888 46.3521C126.301 48.1681 124.041 49.3055 121.527 49.5548L121.504 49.3553L121.527 49.5548C121.487 49.5584 121.448 49.5601 121.408 49.5601ZM119.597 24.5994C119.276 24.5994 118.952 24.6151 118.625 24.6475C118.449 24.665 118.29 24.745 118.179 24.8721C118.067 24.9997 118.016 25.1591 118.035 25.3221L120.749 48.6113C120.768 48.7742 120.855 48.9203 120.993 49.023C121.132 49.1257 121.305 49.1727 121.481 49.1552C123.881 48.9174 126.035 47.8323 127.55 46.0998C129.064 44.3674 129.756 42.1947 129.498 39.9821L128.572 32.0402C128.075 27.7743 124.149 24.5994 119.597 24.5994Z" fill="#00227B"/>
<g opacity="0.35">
<g opacity="0.35">
<g opacity="0.35">
<g opacity="0.35">
<path opacity="0.35" d="M129.28 36.237L129.714 39.9617C130.26 44.6446 126.584 48.8513 121.504 49.3565C121.019 49.4051 120.585 49.0792 120.533 48.6332L119.809 42.4423C119.978 42.7109 120.307 42.8756 120.662 42.8431L121.261 42.7822C125.275 42.3849 128.415 39.6735 129.28 36.237Z" fill="#00227B"/>
</g>
</g>
</g>
</g>
<path d="M121.406 50.4759C120.931 50.4759 120.473 50.3274 120.098 50.0484C119.662 49.7254 119.39 49.2649 119.33 48.7527L116.617 25.4637C116.557 24.9515 116.717 24.4481 117.068 24.0467C117.418 23.6454 117.917 23.3942 118.473 23.3391C124.207 22.7708 129.374 26.6114 129.991 31.9004L130.916 39.8423C131.215 42.4041 130.414 44.9201 128.66 46.9269C126.907 48.9331 124.411 50.19 121.633 50.4649C121.558 50.4718 121.482 50.4759 121.406 50.4759ZM121.376 48.2453H121.376C121.376 48.2453 121.376 48.2453 121.376 48.2453ZM119.059 25.5321L121.701 48.2075C123.706 47.9338 125.498 46.9896 126.777 45.5263C128.125 43.984 128.741 42.0504 128.511 40.0807L127.586 32.1388C127.124 28.174 123.335 25.2676 119.059 25.5321Z" fill="#00227B"/>
<path d="M35.2452 32.7095C35.7294 32.6613 36.1641 32.9844 36.2163 33.431L38.93 56.7201C38.9822 57.1667 38.6319 57.5675 38.1477 57.6156C33.0679 58.1191 28.5076 54.7296 27.9617 50.0449L27.0365 42.103C26.4894 37.4184 30.1654 33.2129 35.2452 32.7095Z" fill="white"/>
<path d="M37.1516 57.8656C32.3806 57.8662 28.2656 54.5382 27.7448 50.0664L26.8197 42.1245C26.2619 37.3372 30.031 33.0244 35.2221 32.5099L35.2453 32.7095L35.2221 32.5099C35.8239 32.4502 36.3673 32.8539 36.4321 33.4095L39.1459 56.6986C39.2106 57.2543 38.7729 57.7548 38.1704 57.8146C37.8289 57.8488 37.4881 57.8656 37.1516 57.8656ZM35.3396 32.9049C35.3158 32.9049 35.2925 32.9061 35.2679 32.9084C30.3153 33.3991 26.7191 37.5142 27.2518 42.0816L28.1769 50.0235C28.709 54.5909 33.1705 57.9074 38.1239 57.4167C38.4881 57.3807 38.7528 57.0779 38.7138 56.7422L36 33.453C35.9636 33.1387 35.6742 32.9049 35.3396 32.9049Z" fill="#00227B"/>
<g opacity="0.35">
<g opacity="0.35">
<g opacity="0.35">
<g opacity="0.35">
<path opacity="0.35" d="M38.1795 50.259L38.9317 56.7202C38.9845 57.1668 38.6311 57.5675 38.1474 57.6157C35.4808 57.879 32.9551 57.0711 31.0797 55.5642C29.386 54.2036 28.2225 52.2698 27.9628 50.0462L27.5728 46.6996C29.3571 49.4928 32.808 51.2195 36.5324 50.8512L37.4537 50.7595C37.7896 50.7259 38.0556 50.5258 38.1795 50.259Z" fill="#00227B"/>
</g>
</g>
</g>
</g>
<path d="M37.151 58.7808C31.8794 58.7814 27.3337 55.1048 26.7581 50.1638L25.833 42.2219C25.2167 36.933 29.3814 32.1677 35.1164 31.5993C36.2624 31.4857 37.2963 32.2536 37.4196 33.3109L40.1333 56.6006C40.2566 57.6585 39.4239 58.6109 38.2768 58.7245C37.8988 58.7628 37.5227 58.7808 37.151 58.7808ZM35.0486 33.8573C30.8097 34.4373 27.777 38.0193 28.2386 41.9842L29.1638 49.926C29.626 53.8909 33.4146 56.7967 37.6906 56.5327L35.0486 33.8573Z" fill="#00227B"/>
<path d="M78.3791 80.9468C102.283 80.9468 121.661 63.0764 121.661 41.0318C121.661 18.9872 102.283 1.11659 78.3791 1.11659C54.4748 1.11659 35.0968 18.9872 35.0968 41.0318C35.0968 63.0764 54.4748 80.9468 78.3791 80.9468Z" fill="white"/>
<path d="M78.337 81.1485C73.0303 81.1485 67.8461 80.2709 62.9035 78.5333C57.6476 76.6868 52.8861 73.9506 48.7497 70.4021C44.6133 66.8531 41.3115 62.6702 38.9348 57.9694C36.4745 53.1021 35.1198 47.8903 34.9079 42.4783C34.6959 37.0664 35.6399 31.778 37.7135 26.7599C39.716 21.9129 42.6832 17.5217 46.5309 13.7071C50.3786 9.89246 54.9156 6.84694 60.0136 4.65514C65.2915 2.3862 70.9429 1.1369 76.8113 0.94144C82.6796 0.745984 88.4141 1.61655 93.8558 3.52879C99.1118 5.37549 103.873 8.11194 108.009 11.6603C112.146 15.2093 115.448 19.3922 117.824 24.0931C120.285 28.9604 121.639 34.1722 121.851 39.5842C122.063 44.9961 121.12 50.2845 119.046 55.3026C117.043 60.1496 114.076 64.5407 110.228 68.3554C106.379 72.1698 101.844 75.2146 96.746 77.4066C91.4686 79.6757 85.8167 80.9249 79.9484 81.1202C79.4095 81.1393 78.8721 81.1485 78.337 81.1485ZM78.3997 1.31611C77.8761 1.31611 77.354 1.32481 76.8266 1.34222C53.0961 2.13217 34.4865 20.5789 35.3425 42.4632C35.7569 53.0644 40.6235 62.8825 49.0453 70.1081C57.0772 76.9996 67.4273 80.7465 78.3401 80.7472C78.8698 80.7472 79.3995 80.738 79.9316 80.7203C91.4266 80.3381 102.073 75.8502 109.908 68.0834C117.743 60.3167 121.83 50.201 121.415 39.5998C120.579 18.2015 101.433 1.31611 78.3997 1.31611Z" fill="#00227B"/>
<g opacity="0.35">
<g opacity="0.35">
<g opacity="0.35">
<g opacity="0.35">
<path opacity="0.35" d="M121.003 34.0847C121.349 35.8792 121.561 37.7178 121.635 39.5929C122.493 61.6228 103.827 80.1258 79.9392 80.922C56.0512 81.714 35.9875 64.5002 35.1239 42.4709C35.0988 41.8375 35.09 41.203 35.0982 40.5772C38.7735 59.898 57.4254 74.2471 79.2818 73.5203C102.484 72.7474 120.756 55.2724 121.003 34.0847Z" fill="#00227B"/>
</g>
</g>
</g>
</g>
<path d="M78.337 82.0637C72.9087 82.0637 67.6063 81.1655 62.5504 79.389C57.175 77.5 52.304 74.7015 48.074 71.0721C43.8439 67.4424 40.4665 63.1638 38.0358 58.3557C35.5189 53.377 34.1333 48.0457 33.917 42.5108C33.7007 36.9759 34.6661 31.5663 36.7874 26.4334C38.8358 21.4761 41.8703 16.9841 45.8061 13.0831C49.7418 9.18202 54.3801 6.06687 59.5944 3.82577C64.9931 1.50464 70.7741 0.226909 76.7761 0.0273907C82.7782 -0.172128 88.6434 0.718165 94.2098 2.67448C99.585 4.56352 104.456 7.362 108.686 10.9916C112.916 14.6212 116.293 18.8998 118.724 23.708C121.241 28.6866 122.626 34.018 122.843 39.5528C123.059 45.0877 122.093 50.4973 119.972 55.6303C117.924 60.5874 114.89 65.0795 110.954 68.9806C107.018 72.8819 102.378 75.996 97.1649 78.2382C91.766 80.559 85.9848 81.8365 79.9835 82.036C79.4339 82.0545 78.8843 82.0637 78.337 82.0637ZM78.3997 2.23195C77.8883 2.23195 77.3785 2.24065 76.8633 2.25747C53.6795 3.02886 35.4987 21.0504 36.3352 42.4308C36.7402 52.7877 41.4948 62.3791 49.7223 69.4388C57.5693 76.1715 67.6804 79.8321 78.3424 79.8321C78.8591 79.8321 79.3774 79.8236 79.8972 79.8059C91.1277 79.4329 101.528 75.0476 109.184 67.4604C116.838 59.873 120.831 49.9904 120.426 39.6334C119.607 18.7275 100.902 2.23195 78.3997 2.23195Z" fill="#00227B"/>
<path d="M121.536 40.6217C121.97 48.4221 119.625 55.7944 115.263 62.0079C111.992 66.6664 97.9561 75.2118 80.0936 76.2041C63.531 77.1235 48.0024 69.6882 44.2327 65.3626C39.2039 59.5922 36.0562 52.4797 35.6229 44.6794C34.4763 24.0368 53.2325 14.5708 76.958 13.4502C100.683 12.3296 120.39 19.9792 121.536 40.6217Z" fill="#3949AB"/>
<path d="M77.2187 77.0499C68.9829 77.0499 61.8201 75.1573 57.0655 73.4658C51.0449 71.3241 45.7525 68.3321 43.5834 65.8428C38.2596 59.7343 35.2194 52.4293 34.7911 44.7183C34.5068 39.6016 35.4219 34.9587 37.5093 30.9185C39.4746 27.116 42.4891 23.8217 46.4701 21.1259C53.7429 16.2005 64.2703 13.2814 76.9145 12.6846C89.5584 12.0878 100.354 13.9995 108.134 18.2137C112.392 20.5203 115.757 23.5137 118.133 27.1114C120.657 30.9335 122.082 35.4662 122.366 40.5829C122.794 48.294 120.578 55.8466 115.959 62.4249C114.041 65.1578 109.274 68.5079 103.521 71.1669C98.4674 73.5026 90.3098 76.4051 80.1425 76.9692C79.1549 77.0237 78.1788 77.0499 77.2187 77.0499ZM81.3786 14.1108C79.9468 14.1108 78.4876 14.1456 76.9993 14.2158C64.6811 14.7975 54.4649 17.6146 47.4544 22.3618C39.6275 27.6624 35.9257 35.1582 36.4521 44.64C36.8622 52.0268 39.7765 59.0268 44.8796 64.8824C46.3978 66.6247 50.6568 69.5432 57.6642 72.0354C62.8194 73.8685 70.8859 75.9472 80.0432 75.439C89.9291 74.8898 97.8628 72.0665 102.777 69.7955C109.362 66.7517 113.243 63.4736 114.565 61.5915C118.992 55.2857 121.117 48.048 120.706 40.6612C120.18 31.1795 115.666 24.0716 107.293 19.5361C100.699 15.9645 91.8034 14.1108 81.3786 14.1108Z" fill="#00227B"/>
<g opacity="0.5">
<g opacity="0.5">
<g opacity="0.5">
<g opacity="0.5">
<path opacity="0.5" d="M112.919 39.1298C113.459 35.2605 111.432 31.8313 108.392 31.4703C105.352 31.1093 102.45 33.9533 101.91 37.8225C101.369 41.6917 103.396 45.121 106.436 45.482C109.476 45.843 112.379 42.999 112.919 39.1298Z" fill="white"/>
</g>
</g>
</g>
</g>
<g opacity="0.5">
<g opacity="0.5">
<g opacity="0.5">
<g opacity="0.5">
<path opacity="0.5" d="M104.316 53.5115C104.828 51.7844 103.94 50.0558 102.333 49.6507C100.725 49.2457 99.0079 50.3175 98.4957 52.0448C97.9836 53.772 98.8718 55.5005 100.479 55.9055C102.086 56.3106 103.804 55.2387 104.316 53.5115Z" fill="white"/>
</g>
</g>
</g>
</g>
<g opacity="0.35">
<path opacity="0.35" d="M112.112 21.7587C117.62 26.1318 121.074 32.3302 121.535 40.6207C121.969 48.4228 119.624 55.7945 115.264 62.0079C111.992 66.6665 97.9545 75.2118 80.0921 76.2055C73.7855 76.558 67.6303 75.6959 62.214 74.2535C84.1426 72.6002 101.236 62.1181 105.293 56.3402C110.831 48.4541 113.805 39.0964 113.253 29.1982C113.109 26.5523 112.717 24.0752 112.112 21.7587Z" fill="#00227B"/>
</g>
<path d="M37.8797 27.9976C37.6357 27.9976 37.3904 27.9274 37.1804 27.7819C36.686 27.4385 36.5722 26.8023 36.9086 26.333C38.7048 23.6117 40.9985 21.1247 43.7255 18.9416C46.3808 16.8165 49.4688 14.9611 52.9033 13.427C56.2661 11.9254 59.983 10.7225 63.9502 9.85134C67.8816 8.9883 72.0784 8.44658 76.4254 8.24125C80.7005 8.0394 84.8902 8.17572 88.8765 8.64553C92.8996 9.11994 96.7246 9.93599 100.245 11.0699C103.847 12.2305 107.143 13.7292 110.04 15.5243C113.019 17.3698 115.596 19.5401 117.7 21.9755C118.068 22.3508 118.106 22.9256 117.762 23.3431C117.373 23.8153 116.643 23.9069 116.131 23.5485L116.009 23.4649L115.917 23.3571C108.126 14.2999 93.774 9.57178 76.5445 10.3855C59.2189 11.2039 45.4908 17.433 38.8797 27.4756L38.8495 27.5214L38.8099 27.5695C38.5822 27.8497 38.2332 27.9976 37.8797 27.9976Z" fill="#00227B"/>
<g opacity="0.5">
<g opacity="0.5">
<g opacity="0.5">
<g opacity="0.5">
<path opacity="0.5" d="M45.9515 56.5038C45.9515 56.5038 37.8882 36.4673 49.3382 27.79C60.7883 19.1128 77.912 18.3373 77.568 19.3685C77.568 19.3685 58.8481 24.4957 52.1985 38.6649C47.0709 49.5914 45.9515 56.5038 45.9515 56.5038Z" fill="white"/>
</g>
</g>
</g>
</g>
<path d="M117.605 153.944H40.8418C38.3563 153.944 36.3412 152.085 36.3412 149.794C36.3412 148.473 37.5022 147.402 38.9343 147.402H119.512C120.945 147.402 122.106 148.473 122.106 149.794C122.106 152.086 120.091 153.944 117.605 153.944Z" fill="#E6E9FA"/>
<g opacity="0.3">
<g opacity="0.3">
<g opacity="0.3">
<g opacity="0.3">
<path opacity="0.3" d="M122.104 149.794C122.104 150.247 122.025 150.683 121.879 151.092C121.475 150.256 120.568 149.676 119.513 149.676H38.9349C38.2198 149.676 37.5708 149.942 37.1016 150.378C36.8784 150.584 36.6953 150.824 36.567 151.092C36.4211 150.684 36.3412 150.249 36.3412 149.794C36.3412 149.135 36.6299 148.537 37.1023 148.104C37.5715 147.669 38.2204 147.402 38.9355 147.402H119.513C120.946 147.401 122.104 148.472 122.104 149.794Z" fill="white"/>
</g>
</g>
</g>
</g>
<g opacity="0.35">
<g opacity="0.35">
<g opacity="0.35">
<g opacity="0.35">
<path opacity="0.35" d="M122.104 149.794C122.104 150.939 121.601 151.979 120.786 152.727C119.973 153.479 118.846 153.943 117.605 153.943H40.8431C38.3576 153.943 36.3406 152.086 36.3406 149.794C36.3406 149.353 36.4696 148.939 36.6978 148.583C37.3784 150.068 38.9802 151.113 40.8424 151.113H117.604C118.846 151.113 119.973 150.649 120.785 149.897C121.191 149.522 121.52 149.077 121.746 148.583C121.976 148.939 122.104 149.353 122.104 149.794Z" fill="#00227B"/>
</g>
</g>
</g>
</g>
<path d="M117.606 154.999H40.8422C37.7298 154.999 35.1978 152.664 35.1978 149.794C35.1978 147.894 36.8744 146.348 38.9348 146.348H119.513C121.573 146.348 123.25 147.894 123.25 149.794C123.25 152.664 120.718 154.999 117.606 154.999ZM38.9341 148.458C38.1354 148.458 37.4851 149.057 37.4851 149.794C37.4851 151.501 38.9907 152.889 40.8416 152.889H117.606C119.456 152.889 120.962 151.501 120.962 149.794C120.962 149.058 120.312 148.458 119.513 148.458H38.9341Z" fill="#00227B"/>
<path d="M126.587 100.675L119.079 147.401H39.3701L39.0984 145.711L31.8583 100.675C31.6212 99.1958 32.8652 97.8687 34.4841 97.8687H123.96C125.583 97.8687 126.824 99.1958 126.587 100.675Z" fill="#FF66AC"/>
<path d="M126.587 100.675L119.079 147.401H39.3701L39.0984 145.711L31.8583 100.675C31.6212 99.1958 32.8652 97.8687 34.4841 97.8687H123.96C125.583 97.8687 126.824 99.1958 126.587 100.675Z" fill="#E6E9FA"/>
<g opacity="0.5">
<g opacity="0.5">
<g opacity="0.5">
<g opacity="0.5">
<path opacity="0.5" d="M34.6888 103.575C34.4516 102.096 35.6956 100.769 37.3145 100.769H126.571L126.587 100.676C126.824 99.1958 125.583 97.8687 123.961 97.8687H34.485C32.8661 97.8687 31.6221 99.1958 31.8593 100.676L39.0987 145.711L39.3704 147.401H41.7345L34.6888 103.575Z" fill="white"/>
</g>
</g>
</g>
</g>
<g opacity="0.35">
<g opacity="0.35">
<g opacity="0.35">
<g opacity="0.35">
<path opacity="0.35" d="M121.445 97.8687H115.162C117.545 105.917 116.23 124.093 100.861 133.592C81.5666 145.517 46.7951 145.441 39.4129 145.711L39.6846 147.401H116.563L124.071 100.675C124.308 99.1958 123.067 97.8687 121.445 97.8687Z" fill="#00227B"/>
</g>
</g>
</g>
</g>
<path d="M120.064 148.458H38.383L30.7285 100.829C30.5662 99.8207 30.8876 98.8001 31.6096 98.0279C32.3316 97.2558 33.38 96.8134 34.485 96.8134H123.962C125.068 96.8134 126.116 97.2558 126.838 98.0279C127.56 98.8001 127.881 99.8207 127.719 100.829L120.064 148.458ZM40.3572 146.347H118.09L125.455 100.519C125.521 100.113 125.396 99.7174 125.105 99.406C124.814 99.0945 124.408 98.9233 123.962 98.9233H34.485C34.0391 98.9233 33.6334 99.0953 33.3423 99.406C33.051 99.7174 32.9265 100.113 32.992 100.519L40.3572 146.347Z" fill="#00227B"/>
<g opacity="0.3">
<g opacity="0.3">
<g opacity="0.3">
<g opacity="0.3">
<path opacity="0.3" d="M45.715 136.484C42.6911 130.338 40.4892 119.845 40.9855 113.669C41.4817 107.495 45.3653 109.384 46.569 117.294C49.7721 138.346 47.0646 139.229 45.715 136.484Z" fill="white"/>
</g>
</g>
</g>
</g>
<path d="M89.6371 117.334C89.735 116.544 89.8481 115.747 89.6799 114.945C89.605 114.858 89.537 114.769 89.4621 114.682C89.2144 114.599 88.9729 114.492 88.7153 114.432C86.9013 114 85.0622 113.829 83.1948 113.977C80.7586 114.171 78.5228 114.864 76.6003 116.292C75.9043 116.808 75.2697 117.389 74.62 117.954C74.4458 118.106 74.3119 118.17 74.0672 118.068C73.4917 117.826 72.8717 117.718 72.2421 117.689C70.5535 117.618 69.0465 118.122 67.6409 118.935C66.1177 119.821 64.89 121.003 63.7467 122.27C63.2599 122.806 63.4492 123.404 64.1737 123.629C64.6309 123.767 65.0881 123.902 65.5454 124.04C66.641 124.367 67.734 124.691 68.8265 125.018C68.8239 125.049 68.8271 125.065 68.822 125.081C68.8132 125.101 68.8038 125.123 68.7887 125.142C68.3327 125.683 68.4434 126.183 68.9239 126.653C68.9755 126.705 69.0202 126.767 69.0654 126.823C69.317 127.128 69.5742 127.437 69.8409 127.755C69.4767 128.014 69.1188 128.235 68.8025 128.501C68.6428 128.635 68.5019 128.83 68.4415 129.023C68.339 129.334 68.5138 129.653 68.8145 129.816C69.1334 129.993 69.4616 129.986 69.7585 129.788C70.1352 129.541 70.4949 129.274 70.878 129.004C71.2396 129.443 71.5823 129.859 71.9264 130.27C72.3207 130.738 72.5924 130.818 73.2037 130.662C73.315 130.63 73.4251 130.608 73.5566 130.579C73.5654 130.699 73.5754 130.796 73.581 130.887C73.6591 132.343 73.7308 133.803 73.8175 135.256C73.8571 135.944 74.4471 136.27 75.1219 135.975C75.7313 135.709 76.3401 135.429 76.9374 135.13C78.3141 134.439 79.5669 133.594 80.5668 132.469C81.8173 131.054 82.5099 129.473 82.1858 127.606C82.172 127.532 82.2385 127.406 82.3081 127.369C82.9219 127.004 83.5518 126.662 84.1663 126.295C85.5552 125.46 86.6713 124.375 87.5442 123.08C88.7305 121.318 89.3849 119.385 89.6371 117.334ZM69.7302 123.638C68.4654 123.258 67.1541 122.864 65.807 122.46C67.1988 121.095 68.6718 119.904 70.6553 119.401C71.5126 119.184 72.5031 119.202 73.088 119.421C71.9773 120.819 70.8641 122.217 69.7302 123.638ZM80.368 129.634C80.047 130.579 79.4332 131.349 78.6772 132.037C77.7377 132.88 76.6439 133.51 75.4615 134.084C75.3904 132.744 75.3175 131.434 75.2458 130.15C77.0337 129.509 78.7819 128.883 80.5393 128.253C80.6073 128.7 80.524 129.173 80.368 129.634ZM86.9709 120.664C86.3953 121.916 85.6409 123.056 84.5638 124C83.7329 124.725 82.7912 125.306 81.7982 125.822C79.1083 127.223 76.2244 128.189 73.276 129.005C73.132 129.044 73.044 129.036 72.949 128.915C72.7433 128.645 72.5125 128.385 72.2949 128.119C72.2805 128.104 72.2754 128.079 72.2546 128.031C72.3302 127.976 72.4106 127.921 72.4918 127.864C74.1741 126.672 75.8647 125.485 77.5474 124.291C78.0336 123.95 78.055 123.366 77.6047 123.028C77.2906 122.79 76.8763 122.794 76.5132 123.046C75.5005 123.758 74.4905 124.471 73.4804 125.185C72.727 125.717 71.9798 126.246 71.1975 126.799C70.9289 126.476 70.6698 126.18 70.4358 125.869C70.3962 125.814 70.4364 125.673 70.4906 125.604C71.3874 124.37 72.2766 123.129 73.21 121.916C74.1332 120.712 75.1829 119.6 76.3376 118.579C77.4198 117.615 78.5939 116.763 80.0118 116.256C80.9215 115.929 81.8594 115.707 82.8286 115.612C82.9165 115.6 83.0442 115.681 83.1069 115.756C84.0922 116.931 85.066 118.108 86.0422 119.287C86.3357 119.638 86.6246 119.995 86.9266 120.342C87.0175 120.447 87.0282 120.536 86.9709 120.664ZM87.5549 119.019C86.5811 117.843 85.6301 116.699 84.6785 115.549C84.6792 115.523 84.6876 115.493 84.6922 115.464C85.8006 115.587 86.912 115.712 88.0349 115.836C88.0143 116.951 87.8354 117.973 87.5549 119.019Z" fill="#00227B"/>
<path d="M86.9281 120.342C86.6254 119.995 86.3372 119.637 86.0437 119.286C85.0675 118.107 84.0937 116.93 83.1084 115.755C83.0457 115.68 82.9181 115.6 82.8302 115.611C81.8609 115.706 80.923 115.929 80.0133 116.256C78.5946 116.763 77.4213 117.615 76.3391 118.579C75.1844 119.6 74.1347 120.712 73.2115 121.916C72.2783 123.129 71.389 124.37 70.4921 125.604C70.438 125.672 70.3978 125.813 70.4374 125.868C70.6707 126.18 70.9298 126.475 71.199 126.798C71.9814 126.245 72.7286 125.716 73.482 125.185C74.492 124.47 75.502 123.757 76.5147 123.045C76.8778 122.794 77.2913 122.79 77.6063 123.028C78.0565 123.366 78.0358 123.95 77.5489 124.291C75.8662 125.484 74.1756 126.672 72.4933 127.863C72.4122 127.92 72.3311 127.976 72.2562 128.031C72.277 128.079 72.282 128.104 72.2964 128.118C72.5141 128.385 72.7448 128.644 72.9505 128.914C73.0455 129.036 73.1335 129.043 73.2775 129.005C76.2259 128.188 79.1098 127.222 81.7997 125.822C82.7919 125.306 83.7344 124.724 84.5653 123.999C85.6416 123.055 86.3968 121.915 86.9724 120.663C87.029 120.536 87.0175 120.447 86.9281 120.342ZM83.9752 122.138C82.6895 123.031 80.8695 122.813 79.9033 121.643C78.931 120.475 79.1763 118.797 80.4506 117.891C81.7011 117.003 83.5219 117.232 84.4973 118.402C85.462 119.563 85.2265 121.265 83.9752 122.138Z" fill="white"/>
<path d="M87.5549 119.019C86.5803 117.845 85.6294 116.699 84.6777 115.549C84.6815 115.522 84.6876 115.494 84.6922 115.464C85.8006 115.588 86.9128 115.713 88.0365 115.837C88.0151 116.95 87.8347 117.973 87.5549 119.019Z" fill="#DB2C2C"/>
<path d="M73.0884 119.422C71.9764 120.818 70.8632 122.217 69.7305 123.639C68.4639 123.257 67.1526 122.864 65.8061 122.46C67.1991 121.094 68.6714 119.903 70.655 119.401C71.5122 119.183 72.5015 119.202 73.0884 119.422Z" fill="#DB2C2C"/>
<path d="M78.6756 132.037C77.737 132.881 76.6439 133.512 75.4606 134.084C75.3889 132.746 75.3166 131.435 75.2455 130.15C77.0337 129.509 78.7811 128.884 80.5408 128.252C80.608 128.7 80.5232 129.172 80.3696 129.634C80.0477 130.581 79.4339 131.35 78.6756 132.037Z" fill="#DB2C2C"/>
<path d="M84.4966 118.402C83.5219 117.232 81.7004 117.004 80.4498 117.891C79.1756 118.798 78.9302 120.475 79.9025 121.643C80.8687 122.813 82.6888 123.032 83.9745 122.138C85.2258 121.265 85.4612 119.563 84.4966 118.402ZM83.1076 121.151C82.4564 121.606 81.4993 121.486 80.9918 120.886C80.4666 120.267 80.6096 119.358 81.3052 118.882C81.9557 118.432 82.9311 118.562 83.421 119.166C83.9332 119.793 83.7925 120.674 83.1076 121.151Z" fill="#00227B"/>
<path d="M83.1069 121.151C82.4556 121.606 81.4986 121.486 80.9895 120.885C80.4666 120.267 80.6088 119.358 81.3036 118.882C81.9557 118.433 82.9295 118.562 83.4195 119.165C83.9316 119.793 83.7925 120.675 83.1069 121.151Z" fill="#22A7F0"/>
<path d="M126.191 103.141C126.191 103.141 120.014 100.437 114.212 102.862C108.658 105.184 104.727 121.717 111.925 125.906C116.367 128.491 119.391 126.208 121.904 126.878C125.631 127.872 133.279 110.848 126.191 103.141Z" fill="white"/>
<g opacity="0.35">
<path opacity="0.35" d="M128.978 113.9C128.246 120.83 124.279 127.511 121.905 126.878C119.391 126.208 116.367 128.492 111.925 125.907C108.486 123.905 107.589 119.089 108.195 114.345C108.604 117.113 109.762 119.484 111.925 120.742C116.367 123.324 119.325 122.124 121.905 121.713C125.094 121.204 127.694 117.991 128.978 113.9Z" fill="#00227B"/>
</g>
<path d="M116.48 128.225C114.981 128.225 113.246 127.923 111.314 126.798C109.583 125.791 108.334 124.162 107.6 121.956C106.984 120.104 106.754 117.849 106.933 115.432C107.146 112.57 107.91 109.633 109.082 107.163C109.977 105.277 111.513 102.832 113.739 101.901C119.952 99.304 126.408 102.068 126.681 102.187L126.903 102.284L127.062 102.458C130.306 105.985 130.493 110.859 130.079 114.326C129.613 118.232 128.118 122.376 126.178 125.139C124.234 127.908 122.607 128.164 121.584 127.892C120.921 127.715 120.082 127.838 119.112 127.982C118.344 128.095 117.463 128.225 116.48 128.225ZM119.5 102.904C117.762 102.904 116.149 103.212 114.685 103.824C113.481 104.327 112.202 105.853 111.179 108.01C110.125 110.23 109.41 112.988 109.216 115.578C108.876 120.149 110.086 123.589 112.535 125.014C115.004 126.452 116.909 126.17 118.752 125.898C119.942 125.723 121.066 125.556 122.222 125.865C122.354 125.886 123.307 125.547 124.649 123.402C127.781 118.399 129.766 108.952 125.483 104.006C124.997 103.82 123.748 103.382 122.112 103.12C121.214 102.977 120.341 102.904 119.5 102.904Z" fill="#00227B"/>
</g>
<defs>
<clipPath id="clip0">
<rect width="146" height="155" fill="white"/>
</clipPath>
</defs>
</svg>
